<?xml version="1.0" standalone="no"?>
<!DOCTYPE svg PUBLIC "-//W3C//DTD SVG 20010904//EN"
 "http://www.w3.org/TR/2001/REC-SVG-20010904/DTD/svg10.dtd">
<svg version="1.0" xmlns="http://www.w3.org/2000/svg"
 width="300.000000pt" height="247.000000pt" viewBox="0 0 300.000000 247.000000"
 preserveAspectRatio="xMidYMid meet">
<metadata>
Created by potrace 1.10, written by Peter Selinger 2001-2011
</metadata>
<g transform="translate(0.000000,247.000000) scale(0.100000,-0.100000)"
fill="#ffdb71" stroke="none">
<path d="M1023 2423 c-16 -16 -35 -42 -42 -59 -9 -23 -22 -34 -52 -43 -22 -7
-37 -16 -34 -21 4 -6 -1 -10 -10 -10 -8 0 -48 -16 -88 -35 -66 -32 -75 -34
-110 -23 -57 18 -101 -7 -123 -69 -13 -36 -29 -58 -63 -83 -25 -19 -51 -39
-56 -44 -14 -15 -66 -46 -87 -53 -10 -3 -18 -9 -18 -14 0 -5 -5 -9 -12 -9 -6
0 -20 -7 -30 -17 -13 -11 -34 -16 -71 -14 -45 1 -57 -3 -76 -23 -25 -27 -46
-99 -31 -104 6 -2 10 -12 10 -23 0 -10 4 -19 10 -19 11 0 7 -42 -11 -105 -6
-22 -13 -53 -16 -70 -3 -16 -9 -32 -13 -35 -5 -3 -10 -20 -13 -39 -6 -36 -38
-77 -69 -87 -15 -4 -18 -16 -18 -61 0 -51 3 -59 32 -85 17 -15 35 -28 39 -28
6 0 22 -52 58 -192 9 -37 20 -70 24 -74 11 -12 8 -79 -5 -92 -6 -6 -11 -33
-10 -59 2 -40 7 -53 33 -76 24 -22 39 -27 72 -26 47 2 87 -8 87 -22 0 -5 6 -9
14 -9 8 0 16 -3 18 -8 7 -16 111 -91 119 -86 5 3 6 -2 3 -10 -3 -9 -1 -16 5
-16 6 0 11 -12 11 -26 0 -35 55 -84 95 -84 16 0 45 9 64 21 30 18 44 20 125
14 108 -7 207 -30 219 -50 28 -50 102 -62 150 -25 25 20 29 20 114 6 76 -14
90 -20 111 -46 13 -16 28 -30 33 -30 18 0 47 -38 64 -86 30 -86 34 -112 19
-125 -23 -19 -17 -77 12 -115 24 -31 31 -34 78 -34 46 0 53 3 73 33 12 17 24
46 26 63 5 32 -13 58 -72 102 -23 17 -61 114 -61 155 0 11 -5 15 -11 11 -6 -3
-3 9 7 27 22 42 19 94 -8 129 -14 20 -18 37 -15 61 7 46 26 140 42 218 8 36
12 67 10 71 -2 4 2 7 10 7 8 0 15 -6 15 -14 0 -7 4 -13 9 -13 5 0 15 -16 21
-36 7 -19 18 -38 26 -41 8 -3 12 -8 10 -12 -2 -3 9 -24 25 -46 15 -22 36 -57
45 -77 9 -21 20 -38 24 -38 4 0 13 -15 21 -32 7 -18 23 -49 36 -69 17 -26 24
-52 26 -103 2 -57 6 -70 25 -85 34 -25 34 -103 -1 -139 -41 -43 -37 -114 9
-159 7 -7 34 -13 61 -13 38 0 51 4 61 20 7 12 16 18 21 16 5 -3 11 4 15 17 9
34 7 87 -3 87 -5 0 -18 19 -30 42 -16 34 -18 51 -12 81 8 35 24 63 44 78 4 3
9 16 12 29 5 28 -5 20 88 69 72 38 83 40 132 35 45 -6 58 -3 83 15 16 11 37
38 45 58 10 25 29 47 56 63 23 14 52 33 64 43 45 38 81 51 140 49 52 -2 61 0
87 27 34 33 39 77 17 130 -11 26 -11 43 0 98 8 36 18 74 23 83 5 10 13 43 16
74 4 30 10 54 13 51 4 -2 13 22 20 53 12 56 39 102 60 102 21 0 50 98 34 114
-5 4 -9 12 -9 17 -1 5 -2 14 -3 19 0 6 -9 10 -20 10 -10 0 -24 7 -31 15 -7 8
-18 15 -26 15 -20 0 -60 41 -84 89 -13 23 -29 45 -36 48 -8 3 -12 8 -9 13 4 7
-54 94 -89 133 -9 9 -16 19 -16 22 1 11 -34 65 -42 65 -4 0 -8 5 -8 10 0 11
-39 71 -53 81 -4 3 -7 26 -7 50 2 70 -10 109 -35 109 -7 0 -15 7 -19 15 -7 19
-74 20 -112 3 -22 -10 -28 -10 -32 0 -2 6 -12 12 -23 12 -11 0 -27 4 -37 9
-27 15 -119 55 -207 91 -191 78 -191 78 -212 117 -20 37 -69 73 -100 73 -27 0
-80 -27 -87 -45 -4 -12 -40 -14 -224 -12 l-219 2 -36 28 c-20 15 -48 27 -65
27 -19 0 -41 -10 -59 -27z m117 -25 c11 -12 20 -25 20 -30 0 -4 108 -8 240 -8
202 0 240 2 240 14 0 20 39 46 70 46 36 0 67 -25 75 -61 5 -23 16 -35 43 -46
21 -8 51 -21 67 -28 17 -8 120 -52 230 -99 177 -75 201 -83 216 -71 18 17 62
20 89 5 27 -14 41 -62 26 -91 -11 -22 1 -44 165 -290 164 -246 179 -266 203
-262 34 7 76 -35 76 -77 0 -34 -30 -70 -59 -70 -15 0 -24 -22 -51 -127 -17
-71 -44 -173 -59 -229 l-27 -101 23 -27 c27 -32 29 -53 7 -84 -24 -34 -60 -45
-94 -29 -27 14 -33 11 -152 -61 -100 -60 -124 -79 -120 -94 6 -24 -23 -67 -55
-79 -18 -7 -33 -5 -55 5 -29 15 -33 13 -138 -39 -98 -49 -107 -56 -107 -82 -1
-18 -11 -36 -30 -53 -28 -23 -30 -29 -28 -88 2 -52 6 -66 24 -79 66 -46 34
-143 -48 -143 -24 0 -71 47 -71 71 0 29 22 68 42 74 15 5 18 17 18 81 0 43 -4
74 -10 74 -38 0 -66 84 -36 109 12 10 -12 55 -137 266 -84 140 -158 254 -164
255 -15 0 -14 4 -53 -235 -30 -188 -30 -190 -11 -205 32 -24 37 -67 12 -100
l-21 -29 34 -95 c41 -113 42 -116 63 -116 27 0 63 -41 63 -70 0 -35 -44 -80
-79 -80 -61 0 -98 72 -63 120 l21 28 -33 99 c-30 87 -37 99 -66 111 -17 7 -39
25 -48 41 -15 27 -24 30 -125 46 -107 17 -109 17 -122 -3 -21 -29 -61 -36 -96
-15 -16 10 -32 27 -35 38 -4 18 -22 22 -172 41 l-167 21 -21 -25 c-44 -53
-141 -13 -131 53 4 29 -1 34 -117 115 -111 78 -123 85 -145 74 -25 -13 -61 -5
-88 18 -20 17 -16 79 7 103 17 18 19 27 11 46 -8 20 -35 123 -82 312 -6 24
-16 37 -26 37 -30 0 -63 41 -63 77 0 37 29 73 59 73 15 0 23 16 41 93 12 50
31 124 42 163 l20 72 -21 21 c-59 59 16 160 90 121 21 -12 42 1 240 142 82 58
96 71 92 91 -7 33 35 80 71 80 15 0 38 -6 50 -12 19 -11 40 -3 164 56 115 55
141 72 142 89 0 12 9 33 21 48 27 34 79 36 109 4z"/>
<path d="M1160 2321 c0 -5 -8 -17 -17 -26 -15 -16 -12 -31 56 -239 41 -121 88
-265 105 -318 18 -59 36 -98 44 -98 7 0 20 16 27 34 8 19 49 106 90 192 41 86
75 158 75 159 0 1 27 59 59 128 54 112 59 128 48 151 l-12 26 -237 0 c-140 0
-238 -4 -238 -9z m445 -29 c14 -10 19 -43 8 -51 -5 -3 -20 -31 -32 -61 -13
-30 -37 -82 -52 -114 -16 -33 -29 -65 -29 -73 0 -7 -4 -13 -10 -13 -5 0 -14
-18 -20 -40 -6 -21 -15 -42 -21 -46 -11 -6 -30 -47 -35 -76 -2 -9 -15 -33 -29
-54 -14 -20 -25 -41 -25 -45 0 -5 -4 -9 -9 -9 -11 0 -45 89 -55 143 -4 20 -11
37 -17 37 -6 0 -8 4 -4 10 3 5 1 17 -4 27 -10 20 -23 52 -26 70 -10 43 -59
199 -65 203 -4 3 -9 21 -13 41 -4 31 -2 38 16 47 25 12 406 16 422 4z"/>
<path d="M883 2227 c-117 -59 -143 -76 -143 -93 0 -12 -9 -32 -19 -46 -19 -24
-19 -24 32 -191 28 -92 56 -167 62 -167 14 1 229 550 219 560 -5 4 -73 -24
-151 -63z m99 -16 c-8 -5 -13 -11 -13 -15 2 -12 -12 -61 -30 -101 -10 -22 -20
-53 -23 -69 -3 -16 -11 -33 -17 -37 -6 -3 -13 -17 -15 -30 -4 -32 -72 -168
-75 -149 -1 8 -1 18 0 23 0 4 -4 7 -10 7 -6 0 -9 7 -5 15 3 8 2 15 -3 15 -4 0
-14 26 -21 58 -7 31 -16 59 -21 62 -16 11 -11 76 10 115 18 35 34 46 119 87
62 29 101 43 107 37 6 -7 5 -13 -3 -18z"/>
<path d="M1765 2291 c-3 -6 20 -63 50 -128 31 -65 72 -153 92 -195 28 -61 41
-78 57 -78 12 0 29 -7 39 -14 16 -13 34 -5 160 69 116 67 142 87 142 105 0 19
-32 36 -265 136 -146 63 -266 114 -267 114 -1 0 -4 -4 -8 -9z m156 -82 c26
-10 79 -34 118 -54 40 -20 77 -38 84 -39 20 -5 51 -17 79 -32 14 -8 33 -14 42
-14 21 0 20 -23 -1 -42 -10 -9 -45 -30 -78 -47 -32 -18 -62 -35 -65 -39 -12
-16 -63 -36 -88 -34 -34 3 -56 24 -81 80 -12 26 -25 54 -30 62 -19 32 -81 169
-81 180 0 12 34 5 101 -21z"/>
<path d="M1006 2098 c-37 -95 -85 -217 -107 -272 -39 -96 -39 -100 -24 -132 8
-18 23 -35 33 -38 9 -3 95 -17 190 -32 170 -27 172 -27 187 -8 8 10 13 26 11
34 -20 82 -203 620 -211 620 -6 0 -41 -78 -79 -172z m98 47 c4 -19 12 -35 18
-35 5 0 7 -7 4 -16 -4 -9 -3 -22 2 -28 5 -6 17 -38 27 -71 17 -57 22 -70 45
-115 6 -11 10 -31 10 -44 0 -13 7 -36 14 -52 8 -15 13 -31 10 -36 -3 -4 -1 -8
4 -8 12 0 25 -91 15 -101 -8 -8 -176 12 -250 29 -23 5 -44 8 -47 5 -7 -7 -54
26 -60 42 -3 8 17 70 44 137 26 68 52 137 56 153 4 17 13 39 20 50 7 11 20 43
30 70 25 75 47 82 58 20z"/>
<path d="M1647 2173 c-25 -54 -71 -152 -103 -218 -139 -293 -154 -329 -146
-337 4 -4 71 17 147 47 360 140 339 130 346 159 4 15 12 33 17 39 6 8 -11 53
-52 137 -33 69 -76 158 -94 198 -46 99 -57 97 -115 -25z m110 -31 c88 -182
113 -242 113 -267 0 -31 -51 -85 -80 -85 -11 0 -21 -4 -24 -9 -3 -4 -19 -11
-36 -14 -17 -4 -54 -17 -83 -30 -71 -33 -137 -58 -166 -64 -14 -2 -28 -6 -33
-9 -14 -9 -10 2 46 117 30 62 52 117 49 122 -3 6 -1 7 5 3 7 -4 12 -2 12 5 0
12 51 121 108 234 23 46 39 65 52 64 3 0 19 -30 37 -67z"/>
<path d="M545 2036 c-33 -23 -104 -72 -157 -110 -60 -40 -98 -74 -98 -84 0
-14 47 -31 227 -84 203 -59 228 -64 242 -51 13 14 13 20 -1 62 -9 25 -33 101
-54 169 -29 95 -41 122 -55 122 -10 0 -21 5 -24 10 -9 15 -14 13 -80 -34z m89
-6 c15 0 46 -68 46 -101 0 -14 4 -29 9 -34 11 -12 44 -156 37 -162 -3 -3 -21
0 -41 7 -20 7 -39 9 -42 6 -4 -3 -11 -2 -17 3 -13 11 -179 62 -221 68 -16 2
-36 12 -42 21 -7 9 -13 12 -13 8 0 -4 -5 -4 -10 -1 -12 8 23 37 115 95 39 25
72 47 75 50 19 21 67 49 78 45 8 -3 19 -5 26 -5z"/>
<path d="M2183 1918 c-124 -72 -143 -86 -143 -108 0 -14 -7 -36 -16 -48 -12
-18 -13 -29 -6 -50 6 -15 51 -134 101 -266 50 -131 91 -244 91 -252 0 -8 4
-14 8 -14 4 0 38 181 74 402 65 391 67 417 38 418 -3 0 -69 -37 -147 -82z
m138 22 c6 0 5 -8 -1 -20 -6 -11 -8 -25 -5 -30 3 -5 0 -12 -6 -15 -5 -4 -8
-13 -5 -20 2 -7 1 -30 -4 -51 -5 -22 -11 -57 -14 -79 -3 -22 -7 -49 -9 -60 -4
-17 -12 -72 -22 -145 -1 -8 -5 -22 -8 -30 -4 -8 -8 -35 -11 -60 -2 -25 -5 -45
-6 -45 -1 0 -4 -13 -6 -29 -6 -58 -22 -48 -53 38 -12 32 -31 79 -42 104 -11
24 -22 52 -24 61 -7 29 -23 75 -40 115 -10 24 -14 51 -11 69 9 45 37 97 52 97
8 0 14 4 14 8 0 4 16 14 35 21 22 8 33 17 29 24 -4 7 -4 9 1 5 8 -8 80 26 90
43 4 5 14 8 22 5 8 -3 19 -6 24 -6z"/>
<path d="M2390 1974 c0 -4 -29 -184 -65 -402 -58 -352 -64 -396 -50 -406 13
-9 61 11 245 104 242 121 232 113 242 185 2 19 -342 525 -357 525 -8 0 -15 -3
-15 -6z m88 -140 c18 -30 37 -54 43 -54 5 0 9 -6 9 -14 0 -7 7 -19 15 -26 8
-7 13 -16 10 -20 -3 -5 -1 -10 3 -12 4 -1 26 -30 47 -63 21 -33 50 -73 63 -90
37 -45 55 -93 47 -132 -3 -18 -10 -31 -16 -28 -5 4 -9 2 -9 -4 0 -5 -10 -13
-22 -17 -13 -3 -34 -14 -48 -24 -14 -10 -36 -21 -50 -25 -14 -4 -41 -18 -60
-30 -19 -11 -51 -27 -70 -35 -19 -7 -41 -18 -49 -24 -7 -6 -29 -16 -48 -22
-44 -16 -49 -5 -34 79 14 79 24 155 25 185 1 12 4 22 7 22 3 0 6 6 6 13 0 6 8
59 17 117 9 58 18 116 20 130 2 14 6 32 10 40 5 13 10 47 15 98 2 23 34 -7 69
-64z"/>
<path d="M261 1770 c-13 -11 -29 -20 -35 -20 -19 0 -98 -322 -83 -337 10 -10
36 -3 122 33 152 64 338 140 413 171 34 14 62 29 62 33 0 5 -26 16 -57 25 -32
9 -133 38 -224 66 -92 27 -168 49 -170 49 -2 -1 -15 -10 -28 -20z m74 -22 c6
-3 26 -9 45 -12 19 -3 59 -15 88 -26 29 -11 57 -18 62 -15 5 3 24 -4 42 -15
18 -11 43 -20 56 -20 38 0 24 -24 -28 -48 -28 -13 -59 -25 -69 -27 -10 -2 -27
-8 -37 -13 -36 -19 -114 -52 -124 -52 -5 0 -24 -8 -42 -18 -44 -24 -119 -52
-141 -52 -14 0 -16 7 -11 48 3 26 10 58 15 72 4 14 10 36 13 50 16 91 84 157
131 128z"/>
<path d="M1658 1672 c-179 -70 -238 -98 -238 -111 0 -9 -7 -27 -16 -40 -16
-22 -13 -31 62 -222 54 -137 84 -199 94 -199 10 0 48 63 104 173 49 94 101
195 116 222 100 186 133 256 125 263 -6 5 -113 -32 -247 -86z m176 -11 c-12
-17 -13 -22 -3 -16 8 3 5 -1 -5 -9 -11 -9 -16 -16 -10 -16 5 0 4 -4 -1 -8 -6
-4 -30 -45 -53 -92 -24 -47 -57 -110 -74 -140 -16 -30 -48 -91 -70 -135 -23
-44 -42 -82 -44 -84 -9 -11 -33 24 -49 74 -11 30 -23 55 -27 55 -4 0 -8 8 -8
18 0 10 -3 21 -6 25 -13 13 -60 168 -52 173 4 3 8 13 8 22 0 20 28 40 90 63
63 24 171 68 195 80 11 5 40 15 65 22 53 16 67 5 44 -32z"/>
<path d="M1877 1606 c-37 -72 -112 -218 -168 -323 -83 -161 -98 -196 -89 -213
8 -14 18 -18 38 -15 40 7 456 55 476 55 9 0 21 11 26 24 5 13 14 27 19 31 7 4
6 18 -4 43 -9 20 -57 145 -107 278 -62 165 -96 244 -108 247 -12 3 -32 -27
-83 -127z m130 -33 c18 -48 49 -133 68 -189 19 -55 43 -121 54 -147 28 -65 7
-109 -45 -99 -13 2 -24 0 -24 -4 0 -5 -21 -10 -47 -11 -42 -1 -177 -14 -269
-25 -16 -1 -32 -7 -35 -12 -4 -5 -19 -6 -34 -2 -23 6 -26 11 -20 33 3 14 13
32 20 40 8 8 15 19 15 25 0 6 13 32 29 58 16 27 28 50 25 53 -2 2 2 10 11 17
8 7 15 17 15 22 0 6 25 56 56 112 31 55 57 106 58 111 3 16 47 97 59 111 17
18 26 5 64 -93z"/>
<path d="M881 1623 c2 -5 72 -66 154 -135 83 -69 222 -187 310 -261 88 -75
161 -134 163 -133 1 2 -32 92 -75 200 -65 162 -81 196 -98 196 -27 1 -52 21
-64 53 -7 19 -18 27 -35 27 -30 0 -319 48 -342 57 -9 3 -15 2 -13 -4z m299
-73 c37 -1 71 -23 83 -52 3 -10 16 -18 27 -18 11 0 20 -4 20 -10 0 -5 6 -10
13 -10 6 0 20 -21 30 -48 26 -66 32 -81 57 -136 12 -27 18 -52 13 -57 -10 -10
-77 40 -193 142 -25 22 -65 56 -90 76 -25 21 -55 46 -66 57 -12 12 -33 30 -48
40 -19 14 -23 22 -16 31 8 10 23 10 73 -1 34 -7 78 -14 97 -14z"/>
<path d="M475 1495 c-148 -61 -278 -115 -287 -118 -10 -4 -18 -17 -18 -30 0
-13 -9 -32 -20 -42 -12 -11 -18 -25 -15 -34 4 -9 22 -77 41 -151 19 -74 39
-151 44 -170 8 -28 17 -39 43 -48 33 -12 38 -9 223 97 142 81 188 113 186 126
-4 23 24 64 52 74 18 7 23 18 25 53 1 23 10 107 20 186 24 202 45 198 -294 57z
m276 58 c7 -7 8 -23 3 -45 -4 -18 -8 -48 -8 -65 0 -18 -3 -33 -7 -33 -3 0 -10
-40 -13 -89 -7 -80 -10 -91 -31 -105 -27 -18 -59 -72 -51 -85 3 -4 -12 -17
-34 -27 -22 -10 -40 -22 -40 -26 0 -9 -71 -42 -82 -40 -5 1 -8 -2 -8 -8 0 -5
-22 -19 -50 -31 -27 -12 -47 -25 -44 -30 3 -5 2 -8 -3 -7 -15 4 -53 -13 -53
-24 0 -6 -3 -8 -7 -5 -3 4 -12 2 -20 -5 -30 -24 -72 51 -90 160 -3 18 -9 35
-14 38 -5 3 -9 16 -9 29 0 14 -5 45 -12 69 -10 36 -9 50 2 73 8 15 14 33 15
38 0 10 114 69 128 67 4 -1 7 2 7 8 0 5 6 7 13 4 8 -3 20 2 27 11 7 8 19 15
26 15 8 0 22 4 32 9 9 5 67 28 127 51 61 24 119 49 129 56 22 15 51 13 67 -3z"/>
<path d="M833 1582 c-8 -5 -19 -59 -27 -133 -8 -68 -18 -150 -22 -182 -6 -51
-4 -59 15 -76 11 -10 21 -24 21 -30 0 -19 39 -29 180 -46 178 -21 428 -54 464
-61 41 -9 31 6 -45 68 -67 54 -467 391 -523 440 -33 29 -44 32 -63 20z m88
-78 c8 -10 40 -36 71 -60 31 -23 54 -44 51 -48 -3 -3 3 -9 13 -13 10 -4 24
-12 29 -18 6 -6 35 -31 65 -56 30 -24 64 -52 75 -63 11 -10 36 -30 55 -44 37
-28 100 -90 100 -98 0 -3 -28 -2 -62 1 -35 3 -83 8 -108 10 -25 2 -85 11 -135
19 -49 9 -106 16 -125 16 -65 0 -108 18 -124 52 -14 27 -14 47 -5 147 19 206
19 207 58 186 15 -7 34 -22 42 -31z"/>
<path d="M2535 1238 c-121 -60 -220 -111 -221 -112 -1 0 -4 -12 -7 -26 -5 -23
5 -32 105 -100 60 -41 130 -90 154 -108 42 -31 46 -32 79 -21 19 7 35 19 35
26 0 7 25 108 55 224 44 166 53 214 43 221 -7 4 -15 8 -18 7 -3 0 -104 -50
-225 -111z m208 44 c3 -4 -1 -25 -8 -46 -8 -22 -12 -43 -9 -47 2 -4 0 -10 -5
-13 -5 -3 -12 -30 -16 -59 -4 -28 -14 -68 -21 -87 -8 -19 -15 -44 -17 -55 -10
-56 -45 -92 -62 -65 -4 6 -11 8 -16 5 -5 -4 -9 -1 -9 4 0 6 -5 11 -11 11 -10
0 -86 53 -121 84 -10 9 -22 16 -28 16 -5 0 -26 15 -46 34 l-36 34 43 28 c24
15 61 34 82 42 20 8 37 19 37 24 0 4 8 8 18 9 9 0 53 20 97 44 77 41 119 53
128 37z"/>
<path d="M812 1090 c-9 -15 10 -57 119 -257 121 -223 131 -238 162 -245 27 -6
36 -3 57 20 235 251 341 374 335 391 -7 23 11 19 -360 66 -154 20 -285 37
-291 39 -6 2 -15 -4 -22 -14z m76 -25 c56 -7 148 -17 182 -20 19 -2 89 -11
155 -20 66 -10 141 -18 167 -19 37 -1 48 -5 48 -17 0 -19 -34 -66 -67 -92 -13
-10 -23 -22 -23 -27 0 -4 -30 -39 -67 -77 -38 -38 -88 -92 -113 -121 -47 -55
-77 -65 -98 -34 -16 23 -51 87 -106 194 -25 47 -50 89 -56 93 -6 3 -8 10 -5
15 3 5 1 11 -4 14 -5 4 -18 25 -29 49 -28 60 -34 79 -21 72 6 -4 22 -8 37 -10z"/>
<path d="M667 1066 c-10 -8 -94 -57 -187 -111 -221 -126 -219 -118 -52 -239
91 -65 127 -85 135 -77 6 6 18 11 27 11 11 0 21 25 37 88 12 48 36 138 53 201
37 133 34 162 -13 127z m-1 -68 c-8 -59 -17 -93 -27 -102 -5 -6 -9 -20 -9 -33
0 -12 -6 -40 -14 -60 -8 -21 -21 -59 -31 -85 -11 -32 -22 -48 -33 -48 -9 0
-43 20 -74 43 -31 23 -75 55 -97 70 -33 23 -39 31 -32 49 8 21 77 68 166 113
53 26 75 39 114 68 34 25 42 21 37 -15z"/>
<path d="M1930 1054 c-107 -13 -217 -26 -245 -29 -41 -5 -52 -11 -62 -31 -11
-23 0 -44 140 -278 178 -297 173 -294 226 -158 19 48 71 175 116 283 74 179
80 198 67 218 -8 11 -22 21 -31 20 -9 -1 -104 -12 -211 -25z m208 -36 c2 -16
-2 -28 -8 -28 -6 0 -9 -4 -6 -8 3 -5 -2 -21 -10 -36 -7 -16 -14 -33 -14 -38 0
-9 -7 -25 -66 -156 -13 -29 -24 -58 -24 -65 0 -7 -7 -22 -15 -33 -8 -12 -11
-24 -8 -28 3 -3 -2 -15 -11 -25 -10 -11 -15 -25 -11 -31 6 -10 -29 -50 -45
-50 -4 0 -12 11 -18 25 -6 14 -16 25 -22 25 -5 0 -10 8 -10 18 0 10 -5 23 -11
29 -14 14 -36 52 -45 76 -3 9 -10 17 -14 17 -4 0 -13 14 -20 30 -7 17 -16 30
-20 30 -4 0 -15 19 -25 43 -11 23 -31 60 -45 82 -34 51 -40 69 -30 84 8 14
157 37 300 47 52 3 101 9 108 13 7 4 25 7 40 6 22 0 28 -5 30 -27z"/>
<path d="M754 1052 c-5 -4 -32 -88 -58 -187 -63 -233 -61 -222 -42 -240 9 -9
16 -23 16 -31 0 -8 5 -14 11 -14 6 0 83 -9 171 -21 152 -20 160 -20 172 -3 11
15 9 24 -14 63 -15 25 -74 132 -130 236 -56 105 -105 193 -109 197 -3 4 -11 4
-17 0z m45 -107 c7 -19 17 -35 22 -35 5 0 9 -6 9 -12 0 -7 10 -29 22 -48 12
-19 23 -41 24 -48 1 -8 9 -21 17 -30 8 -10 23 -35 32 -57 10 -22 24 -47 32
-56 21 -25 34 -79 20 -80 -29 -3 -153 3 -160 8 -5 3 -30 7 -55 10 -34 3 -53
11 -69 29 -27 29 -28 38 -9 92 8 22 12 42 10 45 -3 2 2 20 10 38 7 19 19 59
26 89 25 109 44 124 69 55z"/>
<path d="M2269 1040 c-12 -7 -12 -30 4 -167 26 -227 24 -218 53 -231 22 -11
37 -5 147 61 113 66 123 74 124 102 0 26 -7 35 -56 66 -31 20 -101 68 -157
106 -68 48 -105 68 -115 63z m71 -70 c18 -16 51 -39 73 -50 47 -25 129 -86
140 -105 5 -9 -8 -26 -39 -51 -25 -21 -51 -39 -58 -40 -6 -1 -29 -13 -50 -28
-21 -14 -44 -26 -50 -26 -21 0 -36 23 -36 57 0 17 -4 54 -10 80 -16 80 -19
193 -5 193 1 0 16 -13 35 -30z"/>
<path d="M2193 973 c-12 -32 -64 -163 -116 -290 -53 -128 -92 -235 -87 -238 4
-3 57 21 117 52 101 53 110 60 110 87 0 19 8 35 24 47 l25 18 -18 143 c-9 79
-17 164 -18 191 0 26 -4 47 -8 47 -4 0 -18 -26 -29 -57z m26 -185 c12 -99 7
-153 -15 -162 -8 -3 -14 -12 -14 -20 0 -20 -44 -66 -62 -66 -9 0 -21 -7 -28
-15 -7 -8 -21 -15 -32 -15 -16 0 -19 4 -13 23 3 12 8 31 10 43 1 11 12 40 24
64 12 24 21 48 21 52 0 5 14 39 31 76 44 97 52 112 59 112 4 0 12 -42 19 -92z"/>
<path d="M1334 759 c-149 -166 -180 -205 -176 -225 3 -18 11 -24 32 -24 15 0
65 -7 110 -16 80 -15 83 -15 101 5 10 11 27 22 37 25 15 5 23 38 50 199 18
105 35 202 38 215 4 12 2 22 -2 22 -5 -1 -90 -91 -190 -201z m139 75 c-1 -5
-4 -45 -8 -89 -3 -44 -12 -83 -18 -87 -9 -6 -8 -8 3 -8 11 0 11 -3 2 -12 -7
-7 -12 -26 -12 -43 0 -23 -8 -35 -35 -54 -31 -21 -43 -23 -93 -18 -65 7 -102
14 -110 22 -9 9 20 53 67 104 25 27 78 82 116 124 62 67 94 88 88 61z"/>
</g>
</svg>
